<?xml version="1.0" encoding="iso-8859-1"?>
<!-- Generator: Adobe Illustrator 19.0.0, SVG Export Plug-In . SVG Version: 6.00 Build 0)  -->
<svg version="1.1" id="Layer_1" xmlns="http://www.w3.org/2000/svg" xmlns:xlink="http://www.w3.org/1999/xlink" x="0px" y="0px"
	 viewBox="0 0 490.686 490.686" style="enable-background:new 0 0 490.686 490.686;" xml:space="preserve">
<g>
	<g>
		<g>
			<path d="M487.562,429.791l-42.667-42.667c-2.005-1.984-4.715-3.115-7.552-3.115h-38.251L260.426,245.343L469.343,36.425v38.251
				c0,5.888,4.779,10.667,10.667,10.667s10.667-4.779,10.667-10.667v-64c0-1.387-0.277-2.773-0.811-4.075
				c-1.088-2.603-3.157-4.693-5.781-5.781c-1.301-0.533-2.688-0.811-4.075-0.811h-64c-5.888,0-10.667,4.779-10.667,10.667
				s4.779,10.667,10.667,10.667h38.251L245.343,230.26L36.425,21.343h38.251c5.888,0,10.667-4.779,10.667-10.667
				S80.564,0.01,74.676,0.01h-64c-1.387,0-2.773,0.277-4.075,0.811C3.999,1.908,1.908,3.977,0.82,6.601
				C0.287,7.903,0.01,9.289,0.01,10.676v64c0,5.888,4.779,10.667,10.667,10.667s10.667-4.779,10.667-10.667V36.425L230.26,245.343
				L91.594,384.009H53.343c-2.837,0-5.547,1.131-7.552,3.115L3.124,429.791c-3.051,3.051-3.968,7.637-2.304,11.627
				c1.643,3.989,5.547,6.592,9.856,6.592h32v32c0,4.309,2.603,8.213,6.592,9.856c1.323,0.555,2.709,0.811,4.075,0.811
				c2.773,0,5.504-1.088,7.552-3.115l42.667-42.667c1.984-2.005,3.115-4.715,3.115-7.552v-38.251l138.667-138.667L384.01,399.092
				v38.251c0,2.837,1.131,5.547,3.115,7.552l42.667,42.667c2.048,2.027,4.779,3.115,7.552,3.115c1.365,0,2.752-0.256,4.075-0.811
				c3.989-1.643,6.592-5.547,6.592-9.856v-32h32c4.309,0,8.213-2.603,9.856-6.592C491.529,437.428,490.612,432.841,487.562,429.791z
				"/>
			<path d="M67.124,274.228c2.091,2.069,4.821,3.115,7.552,3.115c2.731,0,5.461-1.045,7.552-3.115l13.781-13.781l13.781,13.781
				c2.091,2.069,4.821,3.115,7.552,3.115s5.461-1.045,7.552-3.115c4.16-4.16,4.16-10.923,0-15.083l-13.781-13.781l13.781-13.781
				c4.16-4.16,4.16-10.923,0-15.083c-4.16-4.16-10.923-4.16-15.083,0l-13.781,13.781L82.25,216.5c-4.16-4.16-10.923-4.16-15.083,0
				c-4.16,4.16-4.16,10.923,0,15.083l13.781,13.781l-13.781,13.781C62.964,263.305,62.964,270.047,67.124,274.228z"/>
			<path d="M444.895,216.458c-4.16-4.16-10.923-4.16-15.083,0l-13.781,13.781l-13.781-13.781c-4.16-4.16-10.923-4.16-15.083,0
				c-4.16,4.16-4.16,10.923,0,15.083l13.781,13.781l-13.781,13.781c-4.16,4.16-4.16,10.923,0,15.083
				c2.048,2.112,4.779,3.157,7.509,3.157c2.731,0,5.461-1.045,7.552-3.115l13.781-13.781l13.781,13.781
				c2.091,2.069,4.821,3.115,7.552,3.115c2.731,0,5.461-1.045,7.552-3.115c4.16-4.16,4.16-10.923,0-15.083l-13.781-13.781
				l13.781-13.781C449.055,227.38,449.055,220.639,444.895,216.458z"/>
		</g>
	</g>
</g>
<g>
</g>
<g>
</g>
<g>
</g>
<g>
</g>
<g>
</g>
<g>
</g>
<g>
</g>
<g>
</g>
<g>
</g>
<g>
</g>
<g>
</g>
<g>
</g>
<g>
</g>
<g>
</g>
<g>
</g>
</svg>
