<svg viewBox="0 0 178 182" >
<g clip-path="url(#clip0)">
<path fill-rule="evenodd" clip-rule="evenodd" d="M152.33 25.7503C138.894 12.2821 124.542 20.9996 115.56 30.0029L73.1342 72.5324L30.7064 115.063C21.7249 124.067 12.3216 137.745 26.4632 151.921C40.6057 166.098 54.2512 156.672 63.2327 147.669L105.66 105.139L148.088 62.6091C157.069 53.6047 165.765 39.2174 152.33 25.7503Z" fill="#FF5C57"/>
<path fill-rule="evenodd" clip-rule="evenodd" d="M71.2537 22.2629L89.2232 40.2741L107.51 21.941C108.755 20.6942 110.012 19.5342 111.281 18.4437C109.368 8.75752 103.853 0 89.2147 0C74.5467 0 69.038 8.79085 67.1359 18.4998C68.5022 19.6856 69.8703 20.8762 71.2537 22.2629Z" fill="#FF5C57"/>
<path fill-rule="evenodd" clip-rule="evenodd" d="M107.507 156.05L89.2296 137.728L71.2722 155.728C69.9081 157.095 68.552 158.345 67.2003 159.519C69.2591 169.392 75.0871 178.437 89.2211 178.437C103.395 178.437 109.215 169.344 111.262 159.44C110.004 158.355 108.746 157.291 107.507 156.05Z" fill="#FF5C57"/>
<path fill-rule="evenodd" clip-rule="evenodd" d="M22.6641 107.002L63.64 65.9272H29.0014C16.2984 65.9272 0 69.937 0 88.9824C0 103.193 9.07366 109.029 18.9577 111.078C20.1292 109.724 21.2988 108.371 22.6641 107.002Z" fill="#FF5C57"/>
<path fill-rule="evenodd" clip-rule="evenodd" d="M159.552 66.8512C158.457 68.1284 157.379 69.4081 156.125 70.6664L114.852 112.039H149C161.702 112.039 178 109.031 178 88.9824C178 74.2829 169.235 68.7597 159.552 66.8512Z" fill="#FF5C57"/>
<path fill-rule="evenodd" clip-rule="evenodd" d="M29.0025 54.5269H74.9903L81.1794 48.3225L63.2228 30.3228C54.2416 21.3186 40.595 11.8925 26.4533 26.0693C16.0837 36.4639 18.3868 46.5817 23.8861 54.7942C25.5621 54.6675 27.2277 54.5269 29.0025 54.5269Z" fill="#FF5C57"/>
<path fill-rule="evenodd" clip-rule="evenodd" d="M149 123.433L103.46 123.434L97.2567 129.653L115.547 147.986C124.528 156.99 138.882 165.708 152.316 152.24C162.341 142.191 160.04 131.632 154.498 123.178C152.715 123.306 150.932 123.433 149 123.433Z" fill="#FF5C57"/>
</g>
</svg>
