<svg viewBox="0 0 50 22" >
<rect width="50" height="22" rx="11" fill="#4CAF50"/>
<path d="M14.8271 11.9458C14.8271 12.5757 14.7158 13.1279 14.4932 13.6025C14.2705 14.0771 13.9512 14.4434 13.5352 14.7012C13.1221 14.959 12.6475 15.0879 12.1113 15.0879C11.5811 15.0879 11.1079 14.9604 10.6919 14.7056C10.2759 14.4507 9.95361 14.0874 9.7251 13.6157C9.49658 13.1411 9.38086 12.5962 9.37793 11.981V11.6646C9.37793 11.0347 9.49072 10.481 9.71631 10.0034C9.94482 9.52295 10.2656 9.15527 10.6787 8.90039C11.0947 8.64258 11.5693 8.51367 12.1025 8.51367C12.6357 8.51367 13.1089 8.64258 13.522 8.90039C13.938 9.15527 14.2588 9.52295 14.4844 10.0034C14.7129 10.481 14.8271 11.0332 14.8271 11.6602V11.9458ZM13.4912 11.6558C13.4912 10.9849 13.3711 10.4751 13.1309 10.1265C12.8906 9.77783 12.5479 9.60352 12.1025 9.60352C11.6602 9.60352 11.3188 9.77637 11.0786 10.1221C10.8384 10.4648 10.7168 10.9688 10.7139 11.6338V11.9458C10.7139 12.5991 10.834 13.106 11.0742 13.4663C11.3145 13.8267 11.6602 14.0068 12.1113 14.0068C12.5537 14.0068 12.8936 13.834 13.1309 13.4883C13.3682 13.1396 13.4883 12.6328 13.4912 11.9678V11.6558ZM20.9883 15H19.6699L17.1035 10.79V15H15.7852V8.60156H17.1035L19.6743 12.8203V8.60156H20.9883V15ZM23.458 13.9409H26.2573V15H22.1396V8.60156H23.458V13.9409ZM28.4194 15H27.1011V8.60156H28.4194V15ZM34.8486 15H33.5303L30.9639 10.79V15H29.6455V8.60156H30.9639L33.5347 12.8203V8.60156H34.8486V15ZM39.8496 12.2271H37.3184V13.9409H40.2891V15H36V8.60156H40.2803V9.66943H37.3184V11.1943H39.8496V12.2271Z" fill="white"/>
</svg>
