<svg id="Layer_1" enable-background="new 0 0 512.015 512.015" height="512" viewBox="0 0 512.015 512.015" width="512" xmlns="http://www.w3.org/2000/svg"><g><g><path d="m502.002 387.011c-6.725 0-9.906-2.252-14.722-5.662-5.877-4.161-13.191-9.338-26.278-9.338s-20.401 5.178-26.278 9.338c-4.816 3.41-7.998 5.662-14.722 5.662s-9.906-2.252-14.722-5.662c-5.877-4.161-13.191-9.338-26.278-9.338s-20.401 5.178-26.278 9.338c-4.816 3.409-7.998 5.662-14.722 5.662-6.725 0-9.906-2.252-14.722-5.662-5.877-4.16-13.191-9.338-26.278-9.338s-20.401 5.178-26.278 9.338c-4.816 3.409-7.998 5.662-14.722 5.662-32.131 0-57.192-9.455-74.488-28.102-17.497-18.864-26.18-47.033-24.663-79.704.769-.638 1.505-1.313 2.207-2.026 4.715-4.785 7.476-10.822 8.203-17.692 7.405.563 14.893-1.037 21.423-4.807 10.327-5.962 16.493-16.252 16.493-27.526 0-27.386-34.964-53.441-79.598-59.318-18.748-2.466-46.689-2.203-73.324 13.084-25.474 14.621-42.94 39.013-51.912 72.498-.228.845-.343 1.715-.343 2.589v57.775.166 188.06c0 5.523 4.477 10 10 10h492.001c5.523 0 10-4.477 10-10v-104.997c.001-5.523-4.476-10-9.999-10zm-335.153-14.5c20.936 22.57 51.764 34.5 89.152 34.5 13.087 0 20.401-5.178 26.278-9.338 4.816-3.409 7.998-5.662 14.722-5.662s9.906 2.252 14.722 5.662c5.877 4.161 13.191 9.338 26.278 9.338s20.401-5.178 26.278-9.338c4.816-3.409 7.998-5.662 14.722-5.662s9.906 2.252 14.722 5.662c5.877 4.161 13.191 9.338 26.278 9.338s20.401-5.178 26.278-9.338c4.816-3.409 7.998-5.662 14.722-5.662 6.725 0 9.906 2.252 14.722 5.662 4.18 2.959 9.085 6.432 16.278 8.192v39.127c-1.844-.945-3.587-2.181-5.624-3.628-5.86-4.166-13.152-9.35-26.21-9.35s-20.351 5.184-26.21 9.35c-4.787 3.402-7.95 5.65-14.623 5.65-6.674 0-9.836-2.248-14.623-5.65-5.86-4.166-13.153-9.35-26.21-9.35s-20.35 5.184-26.21 9.35c-4.787 3.402-7.949 5.65-14.623 5.65s-9.836-2.248-14.624-5.651c-5.86-4.165-13.153-9.349-26.21-9.349-13.058 0-20.35 5.184-26.21 9.35-4.787 3.402-7.95 5.65-14.623 5.65-6.674 0-9.836-2.248-14.624-5.651-5.86-4.165-13.152-9.349-26.21-9.349s-20.351 5.184-26.21 9.35c-4.787 3.402-7.95 5.65-14.623 5.65s-9.836-2.248-14.623-5.65c-5.86-4.166-13.153-9.35-26.21-9.35s-20.35 5.184-26.21 9.35c-4.787 3.402-7.949 5.65-14.623 5.65s-9.836-2.248-14.623-5.65c-5.86-4.166-13.153-9.35-26.21-9.35s-20.35 5.184-26.21 9.35c-2.037 1.447-3.78 2.683-5.624 3.628v-108.439c4.276 2.04 8.899 3.324 13.716 3.788.341 16.75 3.381 44.982 30.484 72.085 1.953 1.953 4.512 2.929 7.071 2.929s5.119-.976 7.071-2.929c3.905-3.905 3.905-10.237 0-14.142-22.939-22.938-24.549-46.508-24.662-60.677 9.57-3.643 17.008-10.398 21.011-18.786 5.739 1.939 11.366 2.861 16.718 2.785 2.204 15.642 5.481 34.393 16.949 52.997 1.89 3.066 5.167 4.754 8.522 4.754 1.79 0 3.603-.48 5.238-1.489 4.701-2.898 6.163-9.059 3.265-13.76-9.995-16.214-12.496-33.091-14.561-48.093 1.672-1.055 3.279-2.242 4.794-3.596 7.363-6.578 11.637-15.842 12.255-25.321 3.055.208 5.998.177 8.81-.088.117 34.432 10.617 64.423 30.167 85.501zm-43.883-184.845c35.605 4.688 62.209 24.714 62.209 39.489 0 5.828-4.541 9.079-6.493 10.206-5.431 3.134-12.087 3.035-17.807-.266-3.548-2.047-7.985-1.726-11.199.813s-4.555 6.782-3.383 10.707c1.361 4.56 2.209 10.782-1.481 14.527-4.435 4.5-14.687 5.32-26.119 2.089-3.704-1.046-7.684.126-10.228 3.018s-3.201 6.986-1.691 10.528c2.634 6.177.75 14.052-4.482 18.726-6.661 5.952-17.373 5.46-29.389-1.349-3.06-1.734-6.807-1.733-9.867.003-3.059 1.737-4.981 4.953-5.061 8.47-.196 8.629-7.719 13.55-14.101 15.142-7.564 1.886-17.539.456-23.874-8.751v-38.809c6.317-3.298 17.936-6.286 29.885 1.547 4.618 3.028 10.816 1.738 13.846-2.881 3.028-4.619 1.738-10.817-2.881-13.846-13.875-9.097-27.677-9.542-38.653-6.837 3.102-9.211 6.906-17.112 11.203-23.891 8.024-5.85 29.923-15.324 52.487-.533 4.619 3.027 10.817 1.737 13.846-2.881 3.028-4.619 1.738-10.818-2.881-13.846-11.537-7.563-23.015-10.714-33.592-11.189 23.557-12.97 48.857-11.615 59.706-10.186zm-102.966 304.342v-25.922c7.709-1.676 12.858-5.328 17.211-8.422 4.787-3.402 7.95-5.65 14.623-5.65 6.674 0 9.836 2.248 14.623 5.65 5.86 4.166 13.153 9.35 26.21 9.35s20.35-5.184 26.21-9.35c4.787-3.402 7.95-5.65 14.623-5.65 6.674 0 9.836 2.248 14.624 5.651 5.86 4.165 13.153 9.349 26.21 9.349s20.35-5.184 26.21-9.349c4.787-3.403 7.95-5.651 14.624-5.651 6.673 0 9.836 2.248 14.623 5.65 5.86 4.166 13.153 9.35 26.211 9.35s20.35-5.184 26.21-9.35c4.787-3.402 7.95-5.65 14.623-5.65s9.836 2.248 14.623 5.65c5.86 4.166 13.153 9.35 26.21 9.35s20.35-5.184 26.21-9.35c4.787-3.402 7.95-5.65 14.623-5.65 6.674 0 9.836 2.248 14.623 5.65 5.86 4.166 13.153 9.35 26.21 9.35s20.35-5.184 26.21-9.349c4.787-3.403 7.95-5.651 14.624-5.651 6.673 0 9.836 2.248 14.623 5.65 4.353 3.094 9.502 6.746 17.211 8.422v25.922z"/><path d="m220.935 106.661 33.938 16.723c2.411 1.189 4.757 1.848 6.642 2.377l21.75 6.108 1.936 38.572-27.722 22.162c-.224.179-.441.368-.648.566-6.46 6.146-9.822 14.756-9.242 23.652l1.726 54.665-30.947 8.292c-15.978 4.281-25.494 20.764-21.213 36.743 3.587 13.388 15.739 22.238 28.984 22.238 2.563 0 5.168-.332 7.758-1.026l13.51-3.62c3.675 13.421 12.058 25.832 25.004 27.682.948.136 1.976.218 3.073.218 5.973 0 14.01-2.438 22.549-12.005 6.822-7.643 13.521-19.346 19.944-34.804l156.97-42.06c12.858-3.445 23.625-11.727 30.319-23.32 6.693-11.593 8.482-25.059 5.037-37.917-.686-2.562-2.362-4.746-4.659-6.072-2.296-1.326-5.024-1.684-7.588-.999l-54.433 14.585c-.133-.236-.268-.471-.422-.7l-24.522-36.36c-.125-.186-.256-.367-.393-.542-3.025-4.28-7.131-7.695-11.914-9.9-.382-.176-.776-.329-1.177-.455l-26.099-8.238.653-3.992 1.505.601c5.137 2.049 10.767 3.838 17.11 3.06l35.046-4.296c16.415-2.003 28.14-16.988 26.137-33.403-.97-7.952-4.979-15.05-11.289-19.986-6.309-4.936-14.16-7.12-22.12-6.149l-25.717 3.152-25.759-12.149c-.115-.062-.236-.114-.352-.175 12.069-9.136 19.884-23.612 19.884-39.881 0-27.57-22.43-50-50-50s-50 22.43-50 50c0 8.015 1.907 15.59 5.273 22.312-6.96-1.461-14.151-2.938-21.775-4.467l-30.254-14.909c-7.173-3.54-15.297-4.074-22.874-1.504s-13.698 7.936-17.238 15.109c-3.54 7.174-4.074 15.297-1.505 22.874 2.569 7.574 7.935 13.696 15.114 17.238zm46.637 109.346c-.004-.136-.011-.272-.021-.408-.208-2.867.813-5.648 2.81-7.688l1.397-1.116 16.03 20.052 1.075 34.043-19.706 5.28zm40.306 13.376 32.563-15.719 33.646 9.81 8.328 12.349-73.71 19.751zm-32.637 112.614c-2.512-.359-6.386-5.616-8.495-13.065l26.067-6.985c-8.828 16.76-15.387 20.368-17.572 20.05zm212.704-102.172c-4.022 6.967-10.477 11.939-18.174 14.002l-241.05 64.589c-2.559.685-5.25.322-7.576-1.02-2.327-1.343-3.986-3.492-4.671-6.051-1.427-5.326 1.745-10.82 7.071-12.248l268.366-71.908c-.354 4.388-1.688 8.69-3.966 12.636zm-85.539-45.82 20.827 30.881-20.387 5.463-11.501-17.054 7.232-22.914c1.407.763 2.612 1.844 3.502 3.166.105.156.214.308.327.458zm-22.892-9.674-5.75 18.216-31.414-9.159c-2.373-.692-4.919-.48-7.146.595l-34.695 16.748-13.131-16.425 11.865-9.485 67.376-4.559zm-35.321-164.325c16.542 0 30 13.458 30 30s-13.458 30-30 30-30-13.458-30-30 13.458-30 30-30zm-118.933 55.392c1.176-2.383 3.21-4.166 5.727-5.02s5.215-.677 7.604.502l31.433 15.489c.78.384 1.607.665 2.459.835 31.595 6.319 55.726 11.758 86.275 18.644l3.591.81c.034.008.068.015.102.022 1.032.221 1.961.561 2.761 1.011.207.116.417.225.631.325l28.659 13.517c1.708.805 3.605 1.111 5.482.881l28.58-3.503c2.647-.321 5.265.404 7.367 2.049 2.102 1.644 3.438 4.009 3.761 6.657.667 5.469-3.239 10.46-8.712 11.128l-35.053 4.297c-1.774.216-4.095-.521-7.265-1.786l-13.071-5.213c-2.815-1.123-5.988-.908-8.626.584-2.639 1.492-4.458 4.1-4.947 7.091l-2.778 16.995-54.318 3.676-2.043-40.706c-.215-4.291-3.147-7.965-7.284-9.126l-28.673-8.052c-1.205-.338-2.45-.688-3.206-1.061l-33.936-16.721c-2.383-1.176-4.166-3.21-5.02-5.727-.853-2.516-.676-5.215.5-7.598z"/></g></g></svg>